HIERARCHY
ROOT Hips
{
  OFFSET 16.2024 39.9099 -6.40059
  CHANNELS 6 Xposition Yposition Zposition Zrotation Xrotation Yrotation
  JOINT LeftHip
  {
    OFFSET 3.43 0 0
    CHANNELS 6 Xposition Yposition Zposition Zrotation Xrotation Yrotation
    JOINT LeftKnee
    {
      OFFSET 0 -18.47 0
      CHANNELS 6 Xposition Yposition Zposition Zrotation Xrotation Yrotation
      JOINT LeftAnkle
      {
        OFFSET 0 -17.95 0
        CHANNELS 6 Xposition Yposition Zposition Zrotation Xrotation Yrotation
        End Site
        {
          OFFSET 0 -3.12 0
        }
      }
    }
  }
  JOINT RightHip
  {
    OFFSET -3.43 0 0
    CHANNELS 6 Xposition Yposition Zposition Zrotation Xrotation Yrotation
    JOINT RightKnee
    {
      OFFSET 0 -18.47 0
      CHANNELS 6 Xposition Yposition Zposition Zrotation Xrotation Yrotation
      JOINT RightAnkle
      {
        OFFSET 0 -17.95 0
        CHANNELS 6 Xposition Yposition Zposition Zrotation Xrotation Yrotation
        End Site
        {
          OFFSET 0 -3.12 0
        }
      }
    }
  }
  JOINT Chest
  {
    OFFSET 0 4.57 0
    CHANNELS 6 Xposition Yposition Zposition Zrotation Xrotation Yrotation
    JOINT CS_BVH
    {
      OFFSET 0 6.57 0
      CHANNELS 6 Xposition Yposition Zposition Zrotation Xrotation Yrotation
      JOINT LeftCollar
      {
        OFFSET 1.06 4.19 1.76
        CHANNELS 6 Xposition Yposition Zposition Zrotation Xrotation Yrotation
        JOINT LeftShoulder
        {
          OFFSET 5.81 0 0
          CHANNELS 6 Xposition Yposition Zposition Zrotation Xrotation Yrotation
          JOINT LeftElbow
          {
            OFFSET 0 -12.08 0
            CHANNELS 6 Xposition Yposition Zposition Zrotation Xrotation Yrotation
            JOINT LeftWrist
            {
              OFFSET 0 -9.82 0
              CHANNELS 6 Xposition Yposition Zposition Zrotation Xrotation Yrotation
              End Site
              {
                OFFSET 0 -7.37 0
              }
            }
          }
        }
      }
      JOINT RightCollar
      {
        OFFSET -1.06 4.19 1.76
        CHANNELS 6 Xposition Yposition Zposition Zrotation Xrotation Yrotation
        JOINT RightShoulder
        {
          OFFSET -6.06 0 0
          CHANNELS 6 Xposition Yposition Zposition Zrotation Xrotation Yrotation
          JOINT RightElbow
          {
            OFFSET 0 -11.08 0
            CHANNELS 6 Xposition Yposition Zposition Zrotation Xrotation Yrotation
            JOINT RightWrist
            {
              OFFSET 0 -9.82 0
              CHANNELS 6 Xposition Yposition Zposition Zrotation Xrotation Yrotation
              End Site
              {
                OFFSET 0 -7.14001 0
              }
            }
          }
        }
      }
      JOINT Neck
      {
        OFFSET 0 4.05 0
        CHANNELS 6 Xposition Yposition Zposition Zrotation Xrotation Yrotation
        JOINT Head
        {
          OFFSET 0 5.19 0
          CHANNELS 6 Xposition Yposition Zposition Zrotation Xrotation Yrotation
          End Site
          {
            OFFSET 0 4.14001 0
          }
        }
      }
    }
  }
}
MOTION
Frames:	7
Frame Time:	0.0333333
15.9238 39.8843 -6.03258 0.221921 -0.0357021 -1.08838 3.43 9.12756e-010 -1.60032e-011 9.67876 -5.03073 -0.988682 1.57372e-008 -18.47 1.10541e-007 -4.97939 17.5454 -7.06772 1.5558e-008 -17.95 3.38894e-008 3.00312 -5.97659 -0.526064 -3.43 -9.12749e-010 1.60023e-011 -6.1081 -1.52963 -1.90535 4.27853e-008 -18.47 -1.42709e-007 -2.06489 11.0729 1.47172 -2.59563e-008 -17.95 2.98131e-008 4.74879 -8.28878 0.00493101 -1.05168e-009 4.57 4.29798e-011 1.18151 0.431198 -0.329464 -1.67976e-009 6.57 2.67812e-010 0.0714642 0.826107 -0.177329 1.06 4.19 1.76 8.68603 1.19859 -0.0899854 5.81 -5.77685e-010 -2.42139e-010 80.5824 6.97916 -1.2802 -4.70036e-009 -12.08 6.73172e-010 2.87576 -0.304683 0.740803 -1.10605e-009 -9.82 -1.29618e-009 -0.576137 0.998412 -0.189508 -1.06 4.19 1.76 -10.2628 1.17079 0.957195 -6.06 -5.89036e-008 -4.70616e-010 -79.6607 1.265 3.34546 -7.10448e-009 -11.08 -5.62306e-011 -3.26103 -0.00932585 -4.36931 -1.10928e-009 -9.82 1.29577e-009 2.6531 5.3806 -0.439538 4.66962e-010 4.05 1.19922e-010 -0.294261 -0.0367885 -0.21305 3.38399e-009 5.19 -2.27068e-010 0.0192285 0.357685 0.0251418 
16.055 39.8387 -5.84639 1.07635 0.361058 -0.154695 3.43 9.12756e-010 -1.60032e-011 8.27755 -5.32103 -1.64604 1.57372e-008 -18.47 1.10541e-007 -4.6859 17.3293 -6.41423 1.5558e-008 -17.95 3.38894e-008 4.22694 -6.5641 -0.611992 -3.43 -9.12749e-010 1.60023e-011 -7.43238 -1.38799 -2.69255 4.27853e-008 -18.47 -1.42709e-007 -1.67091 11.2792 1.37953 -2.59563e-008 -17.95 2.98131e-008 5.82725 -9.34984 0.0991653 -1.05168e-009 4.57 4.29798e-011 0.940415 0.274306 -0.416139 -1.67976e-009 6.57 2.67812e-010 -0.253264 0.514363 -0.373554 1.06 4.19 1.76 8.69187 0.773561 0.195088 5.81 -5.77685e-010 -2.42139e-010 79.8035 5.99598 -1.16737 -4.70036e-009 -12.08 6.73172e-010 2.78008 -0.302106 1.13588 -1.10605e-009 -9.82 -1.29618e-009 -0.154161 1.45267 -0.129915 -1.06 4.19 1.76 -10.6712 0.846494 0.208672 -6.06 -5.89036e-008 -4.70616e-010 -79.3993 1.1828 3.24748 -7.10448e-009 -11.08 -5.62306e-011 -3.2872 -0.00933024 -4.00014 -1.10928e-009 -9.82 1.29577e-009 2.31839 4.89671 -0.381897 4.66962e-010 4.05 1.19922e-010 -0.527295 -0.667985 -0.732506 3.38399e-009 5.19 -2.27068e-010 -0.164051 1.32636 -0.0516045 
16.0799 39.845 -5.72597 1.02486 0.483148 -0.13849 3.43 9.12756e-010 -1.60032e-011 8.16569 -5.24057 -1.58443 1.57372e-008 -18.47 1.10541e-007 -4.55858 17.0736 -5.29014 1.5558e-008 -17.95 3.38894e-008 4.81525 -6.83741 -0.658213 -3.43 -9.12749e-010 1.60023e-011 -7.33874 -1.25963 -2.67433 4.27853e-008 -18.47 -1.42709e-007 -1.7539 11.0443 1.11103 -2.59563e-008 -17.95 2.98131e-008 5.72286 -9.26193 0.0918938 -1.05168e-009 4.57 4.29798e-011 0.93259 0.192441 -0.390509 -1.67976e-009 6.57 2.67812e-010 -0.210836 0.349917 -0.32933 1.06 4.19 1.76 8.65834 0.529802 -0.079219 5.81 -5.77685e-010 -2.42139e-010 79.7792 6.42486 -1.52862 -4.70036e-009 -12.08 6.73172e-010 3.0554 -0.331965 0.112046 -1.10605e-009 -9.82 -1.29618e-009 -0.500025 1.37241 -0.206873 -1.06 4.19 1.76 -10.6172 0.586299 0.522358 -6.06 -5.89036e-008 -4.70616e-010 -79.3042 1.36885 3.04555 -7.10448e-009 -11.08 -5.62306e-011 -3.48655 -0.00932644 -4.32144 -1.10928e-009 -9.82 1.29577e-009 2.45195 4.85071 -0.40009 4.66962e-010 4.05 1.19922e-010 -0.387149 -0.639817 -0.612101 3.38399e-009 5.19 -2.27068e-010 -0.172106 1.16862 -0.00921634 
16.1246 39.9033 -5.58519 0.951781 0.224977 -0.259407 3.43 9.12756e-010 -1.60032e-011 8.1366 -5.64813 -1.99518 1.57372e-008 -18.47 1.10541e-007 -4.57529 18.7492 -4.76843 1.5558e-008 -17.95 3.38894e-008 4.43638 -6.30821 -0.627951 -3.43 -9.12749e-010 1.60023e-011 -7.15187 -1.03593 -2.84774 4.27853e-008 -18.47 -1.42709e-007 -2.11162 11.1961 0.605417 -2.59563e-008 -17.95 2.98131e-008 5.36208 -8.76096 0.0259125 -1.05168e-009 4.57 4.29798e-011 1.21782 0.225272 -0.363592 -1.67976e-009 6.57 2.67812e-010 -0.177775 0.409738 -0.203261 1.06 4.19 1.76 8.52775 0.643684 0.12513 5.81 -5.77685e-010 -2.42139e-010 79.6385 6.4191 -1.87849 -4.70036e-009 -12.08 6.73172e-010 3.33321 -0.364971 -1.09964 -1.10605e-009 -9.82 -1.29618e-009 -0.404078 0.864021 -0.148519 -1.06 4.19 1.76 -10.656 0.619997 0.888911 -6.06 -5.89036e-008 -4.70616e-010 -79.1355 1.66636 2.77967 -7.10448e-009 -11.08 -5.62306e-011 -3.75703 -0.00931576 -5.11671 -1.10928e-009 -9.82 1.29577e-009 2.49401 4.98152 -0.401992 4.66962e-010 4.05 1.19922e-010 -0.546112 -0.552154 -0.495889 3.38399e-009 5.19 -2.27068e-010 -0.0193074 1.45051 -0.187822 
16.1343 39.9412 -5.50331 1.3337 0.322047 -0.492206 3.43 9.12756e-010 -1.60032e-011 7.4648 -4.72763 -1.72432 1.57372e-008 -18.47 1.10541e-007 -4.37417 16.9131 -3.6326 1.5558e-008 -17.95 3.38894e-008 4.45033 -6.15553 -0.617504 -3.43 -9.12749e-010 1.60023e-011 -7.59957 -0.813548 -2.85184 4.27853e-008 -18.47 -1.42709e-007 -2.04165 10.801 0.918431 -2.59563e-008 -17.95 2.98131e-008 5.72265 -8.75642 0.0358263 -1.05168e-009 4.57 4.29798e-011 0.827799 0.183977 -0.247672 -1.67976e-009 6.57 2.67812e-010 -0.378923 0.328232 -0.0290467 1.06 4.19 1.76 8.67616 0.564049 0.372035 5.81 -5.77685e-010 -2.42139e-010 79.5316 6.4465 -2.06589 -4.70036e-009 -12.08 6.73172e-010 3.47181 -0.380139 -1.26707 -1.10605e-009 -9.82 -1.29618e-009 -0.370206 0.788038 -0.135144 -1.06 4.19 1.76 -10.4953 0.487197 0.919941 -6.06 -5.89036e-008 -4.70616e-010 -79.3005 1.62499 2.70365 -7.10448e-009 -11.08 -5.62306e-011 -3.71502 -0.00932172 -4.68959 -1.10928e-009 -9.82 1.29577e-009 2.4053 5.05557 -0.398565 4.66962e-010 4.05 1.19922e-010 -0.546397 -0.613035 -0.263244 3.38399e-009 5.19 -2.27068e-010 0.110362 1.57022 -0.173947 
16.1705 39.9271 -5.41594 1.42296 0.457464 -0.718571 3.43 9.12756e-010 -1.60032e-011 7.10499 -4.44506 -1.79582 1.57372e-008 -18.47 1.10541e-007 -4.09124 16.4417 -3.12365 1.5558e-008 -17.95 3.38894e-008 4.26135 -6.39112 -0.619993 -3.43 -9.12749e-010 1.60023e-011 -7.82521 -0.792309 -2.94839 4.27853e-008 -18.47 -1.42709e-007 -1.87791 10.6807 1.05441 -2.59563e-008 -17.95 2.98131e-008 5.78528 -8.96502 0.0634829 -1.05168e-009 4.57 4.29798e-011 0.767596 0.114161 -0.174347 -1.67976e-009 6.57 2.67812e-010 -0.323284 0.188888 0.0990536 1.06 4.19 1.76 8.11581 0.389246 0.447652 5.81 -5.77685e-010 -2.42139e-010 80.0689 6.826 -2.3739 -4.70036e-009 -12.08 6.73172e-010 3.52757 -0.386897 -1.4037 -1.10605e-009 -9.82 -1.29618e-009 -0.239591 0.56878 -0.0889145 -1.06 4.19 1.76 -10.6585 0.267529 1.02026 -6.06 -5.89036e-008 -4.70616e-010 -79.4533 1.714 2.9201 -7.10448e-009 -11.08 -5.62306e-011 -3.65865 -0.00931868 -4.91193 -1.10928e-009 -9.82 1.29577e-009 2.48581 4.93069 -0.406351 4.66962e-010 4.05 1.19922e-010 -0.663723 -0.668688 -0.111229 3.38399e-009 5.19 -2.27068e-010 -0.079623 1.61735 -0.215201 
16.1692 39.9212 -5.32809 1.14809 0.380573 -0.888567 3.43 9.12756e-010 -1.60032e-011 7.40311 -4.89181 -1.96732 1.57372e-008 -18.47 1.10541e-007 -4.05397 17.7556 -2.67774 1.5558e-008 -17.95 3.38894e-008 4.34123 -6.56094 -0.637652 -3.43 -9.12749e-010 1.60023e-011 -7.531 -0.792504 -2.77917 4.27853e-008 -18.47 -1.42709e-007 -1.94217 11.044 1.57695 -2.59563e-008 -17.95 2.98131e-008 5.51394 -9.03334 0.0669285 -1.05168e-009 4.57 4.29798e-011 0.977776 0.118363 -0.118019 -1.67976e-009 6.57 2.67812e-010 -0.246604 0.197489 0.254683 1.06 4.19 1.76 8.3332 0.436309 0.663076 5.81 -5.77685e-010 -2.42139e-010 80.0584 6.90617 -2.49134 -4.70036e-009 -12.08 6.73172e-010 3.50522 -0.390378 -1.49981 -1.10605e-009 -9.82 -1.29618e-009 -0.220229 0.571676 -0.0813508 -1.06 4.19 1.76 -10.4873 0.254929 1.0996 -6.06 -5.89036e-008 -4.70616e-010 -79.6439 1.89167 3.1756 -7.10448e-009 -11.08 -5.62306e-011 -3.52961 -0.00932486 -4.44798 -1.10928e-009 -9.82 1.29577e-009 2.53379 4.91753 -0.413678 4.66962e-010 4.05 1.19922e-010 -0.577845 -0.730536 -0.069637 3.38399e-009 5.19 -2.27068e-010 -0.170049 1.66119 -0.345225 
